<svg xmlns="http://www.w3.org/2000/svg" width="178" height="100" viewBox="0 0 178 100" fill="none"><path d="M88.811 55.3741H83.691V41.6861H88.811V55.3741ZM84.191 54.8741H88.311V42.1861H84.191V54.8741ZM95.935 55.3741H90.918V41.6861H101.4C102.902 41.5645 104.397 41.9861 105.614 42.8741C106.138 43.3534 106.544 43.9473 106.801 44.6094C107.057 45.2715 107.157 45.9839 107.093 46.6911C107.168 47.9131 106.779 49.1183 106.004 50.0661C105.087 51.1181 103.561 51.6601 101.469 51.6791C100.942 51.6931 96.993 51.6791 95.938 51.6791L95.935 55.3741ZM91.415 54.8741H95.435V51.1741H95.686C95.737 51.1741 100.864 51.1901 101.457 51.1741C103.406 51.1571 104.807 50.6741 105.626 49.7311C106.316 48.8736 106.658 47.7883 106.586 46.6901C106.648 46.0565 106.562 45.4172 106.337 44.8218C106.111 44.2265 105.752 43.6911 105.286 43.2571C104.158 42.4472 102.777 42.067 101.393 42.1851H91.418L91.415 54.8741ZM100.338 48.6041H95.401V44.8781H100.371C100.723 44.8294 101.082 44.8705 101.414 44.9976C101.747 45.1247 102.041 45.3337 102.271 45.6051C102.48 45.952 102.578 46.3541 102.553 46.7581C102.572 47.1332 102.491 47.5066 102.318 47.8401C102.081 48.126 101.774 48.3461 101.427 48.4792C101.081 48.6123 100.706 48.6539 100.338 48.6001V48.6041ZM95.901 48.1041H100.338C101.158 48.1041 101.666 47.9331 101.891 47.5811C102.015 47.3253 102.071 47.0419 102.054 46.7581C102.076 46.4602 102.011 46.1622 101.868 45.9001L101.862 45.8911C101.624 45.5411 101.151 45.3781 100.371 45.3781H95.901V48.1041ZM116.218 55.5761C111.728 55.5761 109.048 54.4611 108.027 52.1681C107.86 51.7252 107.747 51.2639 107.689 50.7941L107.645 50.5061H112.987L113.022 50.7161C113.063 50.9293 113.154 51.13 113.286 51.3021C113.497 51.5571 114.201 51.9851 116.537 51.9851C119.345 51.9851 119.345 51.4921 119.345 51.2271C119.345 50.7801 119.02 50.6271 116.73 50.3831L116.295 50.3421C115.433 50.2611 114.343 50.1581 113.845 50.1151C109.645 49.7351 107.77 48.4301 107.77 45.8851C107.77 43.2121 110.961 41.4851 115.9 41.4851C119.929 41.4851 122.525 42.5471 123.614 44.6441C123.872 45.1319 124.046 45.6601 124.127 46.2061L124.162 46.4871H118.814L118.792 46.2611C118.771 46.0845 118.696 45.9188 118.576 45.7871C118.376 45.5191 117.744 45.0761 115.782 45.0761C113.373 45.0761 113.041 45.3841 113.041 45.7161C113.041 46.1591 113.802 46.3161 116.241 46.5771C117.258 46.6601 118.893 46.8281 119.453 46.8961C122.974 47.2781 124.545 48.5511 124.545 51.0251C124.546 53.1001 123.101 55.5761 116.218 55.5761ZM108.229 51.0061C108.279 51.3359 108.365 51.6591 108.486 51.9701C109.416 54.0591 111.946 55.0761 116.218 55.0761C119.79 55.0761 124.049 54.3761 124.049 51.0251C124.049 48.8321 122.659 47.7461 119.4 47.3931C118.84 47.3251 117.215 47.1581 116.2 47.0741C113.6 46.7921 112.543 46.6421 112.543 45.7161C112.543 44.7581 113.682 44.5761 115.784 44.5761C117.445 44.5761 118.518 44.8761 118.973 45.4811C119.097 45.6302 119.191 45.8021 119.249 45.9871H123.583C123.496 45.6004 123.358 45.2268 123.173 44.8761C122.173 42.9571 119.73 41.9851 115.902 41.9851C111.267 41.9851 108.272 43.5161 108.272 45.8851C108.272 48.1451 109.953 49.2611 113.891 49.6171C114.391 49.6601 115.48 49.7631 116.344 49.8451L116.782 49.8861C118.909 50.1101 119.847 50.2501 119.847 51.2271C119.847 52.2791 118.634 52.4851 116.539 52.4851C114.601 52.4851 113.377 52.1941 112.904 51.6211C112.758 51.4384 112.648 51.2297 112.58 51.0061H108.229ZM134.045 55.5591C128.825 55.5591 125.945 53.4481 125.945 49.6141V41.6861H130.997V49.6141C130.997 50.9291 132.174 51.6831 134.225 51.6831C136.185 51.6831 137.402 50.8961 137.402 49.6311V41.6861H142.402V50.0341C142.407 53.5451 139.358 55.5591 134.042 55.5591H134.045ZM126.445 42.1861V49.6141C126.445 54.3521 131.203 55.0591 134.045 55.0591C136.983 55.0591 141.91 54.4061 141.91 50.0341V42.1861H137.91V49.6311C137.91 51.1811 136.466 52.1831 134.233 52.1831C131.899 52.1831 130.505 51.2231 130.505 49.6141V42.1861H126.445ZM163.59 55.3741H158.822V49.1941L156.118 55.3741H151.959L149.283 49.2061V55.3741H144.498V41.6861H150.792L154.062 49.2331L157.49 41.6861H163.596L163.59 55.3741ZM159.322 54.8741H163.09V42.1861H157.808L154.046 50.4651L150.46 42.1861H144.994V54.8741H148.779V46.8001L152.279 54.8771H155.779L159.316 46.8121L159.322 54.8741ZM19.172 41.9361H14.618V55.1241H27.202V51.6131H19.172V41.9361ZM36.394 41.6361C30.581 41.6361 27.524 44.3911 27.524 48.4361C27.524 53.0061 30.733 55.3241 36.394 55.3241C42.626 55.3241 45.247 52.6361 45.247 48.4361C45.247 44.1711 42.29 41.6341 36.394 41.6341V41.6361ZM36.377 45.0631C36.7728 45.0612 37.1682 45.0843 37.561 45.1321L32.47 50.2231C32.2291 49.6782 32.1116 49.0867 32.126 48.4911C32.126 46.4221 33.168 45.0611 36.377 45.0611V45.0631ZM36.394 51.9511C36.0128 51.9528 35.6317 51.9314 35.253 51.8871L40.353 46.7871C40.585 47.323 40.696 47.9034 40.678 48.4871C40.678 50.5001 39.718 51.9491 36.394 51.9491V51.9511ZM54.27 50.1511H58.957C58.8881 50.4764 58.7443 50.7811 58.537 51.0411C57.5654 51.8327 56.3252 52.2179 55.076 52.1161C54.4473 52.1834 53.8114 52.1147 53.2115 51.9147C52.6116 51.7148 52.0617 51.3882 51.599 50.9571C51.1252 50.262 50.9 49.4272 50.96 48.5881C50.8834 47.7088 51.1282 46.8316 51.649 46.1191C52.304 45.3791 53.413 45.0601 55.043 45.0601C56.0802 44.9742 57.116 45.2406 57.983 45.8161C58.2563 46.0332 58.4606 46.325 58.571 46.6561H62.918C62.8864 46.1106 62.7553 45.5754 62.531 45.0771C61.49 42.9601 59.07 41.7001 54.955 41.7001C51.376 41.7001 48.974 42.7921 47.647 44.4391C46.7706 45.6285 46.3207 47.0785 46.37 48.5551C46.3134 50.0651 46.7516 51.5522 47.618 52.7901C48.929 54.4901 51.264 55.3261 54.07 55.3261C55.9356 55.4562 57.7883 54.9337 59.311 53.8481L59.429 55.1241H63.04V47.3121H54.27V50.1511ZM73.289 41.6331C67.477 41.6331 64.419 44.3881 64.419 48.4331C64.419 53.0031 67.627 55.3211 73.289 55.3211C79.522 55.3211 82.143 52.6331 82.143 48.4331C82.143 44.1711 79.186 41.6341 73.289 41.6341V41.6331ZM73.273 45.0601C73.6583 45.059 74.0434 45.081 74.426 45.1261L69.355 50.2001C69.1217 49.6613 69.008 49.0782 69.022 48.4911C69.018 46.4221 70.064 45.0611 73.273 45.0611V45.0601ZM73.289 51.9481C72.8977 51.9498 72.5066 51.927 72.118 51.8801L77.235 46.7621C77.4757 47.3051 77.5909 47.8954 77.572 48.4891C77.574 50.5001 76.618 51.9491 73.289 51.9491V51.9481Z" fill="#7A7A7A"></path></svg>