<svg xmlns="http://www.w3.org/2000/svg" width="178" height="100" viewBox="0 0 178 100" fill="none"><path d="M31.941 62.8251H57.591V37.175H31.941V62.8251ZM52.654 47.5321H47.234V42.112H52.654V47.5321ZM36.877 42.112H42.3V52.468H52.654V57.8881H36.877V42.112ZM74.294 37.175C71.7575 37.175 69.2779 37.9272 67.1688 39.3365C65.0598 40.7457 63.416 42.7487 62.4453 45.0921C61.4746 47.4356 61.2206 50.0143 61.7155 52.5021C62.2103 54.9899 63.4318 57.2751 65.2254 59.0687C67.019 60.8623 69.3042 62.0838 71.792 62.5786C74.2798 63.0735 76.8585 62.8195 79.202 61.8488C81.5454 60.8781 83.5484 59.2343 84.9576 57.1252C86.3669 55.0162 87.119 52.5366 87.119 50C87.1151 46.5999 85.7626 43.3401 83.3583 40.9358C80.954 38.5315 77.6942 37.179 74.294 37.175ZM74.294 57.8881C72.7339 57.8881 71.2089 57.4254 69.9117 56.5587C68.6145 55.6919 67.6035 54.46 67.0065 53.0187C66.4095 51.5773 66.2532 49.9913 66.5576 48.4612C66.862 46.9311 67.6132 45.5255 68.7164 44.4224C69.8195 43.3192 71.225 42.568 72.7552 42.2636C74.2853 41.9593 75.8713 42.1155 77.3126 42.7125C78.754 43.3095 79.9859 44.3205 80.8527 45.6177C81.7194 46.9149 82.182 48.44 82.182 50C82.1789 52.0911 81.3468 54.0956 79.8682 55.5742C78.3896 57.0528 76.3851 57.8849 74.294 57.8881ZM133.013 37.175C130.476 37.1749 127.997 37.9269 125.888 39.336C123.778 40.7451 122.134 42.748 121.164 45.0914C120.193 47.4349 119.939 50.0136 120.433 52.5015C120.928 54.9893 122.149 57.2746 123.943 59.0683C125.737 60.862 128.022 62.0836 130.51 62.5785C132.997 63.0735 135.576 62.8196 137.92 61.8489C140.263 60.8782 142.266 59.2344 143.676 57.1253C145.085 55.0163 145.837 52.5366 145.837 50C145.833 46.6 144.481 43.3404 142.077 40.9361C139.673 38.5319 136.413 37.1793 133.013 37.175ZM133.013 57.8881C131.453 57.8882 129.928 57.4258 128.63 56.5592C127.333 55.6925 126.322 54.4607 125.725 53.0193C125.128 51.578 124.971 49.992 125.275 48.4618C125.58 46.9316 126.331 45.526 127.434 44.4227C128.537 43.3195 129.943 42.5681 131.473 42.2637C133.003 41.9592 134.589 42.1154 136.03 42.7124C137.472 43.3094 138.704 44.3204 139.571 45.6176C140.437 46.9148 140.9 48.4399 140.9 50C140.897 52.0909 140.065 54.0953 138.587 55.5738C137.108 57.0524 135.104 57.8846 133.013 57.8881ZM103.653 37.175C101.116 37.175 98.6369 37.9272 96.5278 39.3365C94.4188 40.7457 92.775 42.7487 91.8043 45.0921C90.8336 47.4356 90.5796 50.0143 91.0745 52.5021C91.5693 54.9899 92.7908 57.2751 94.5844 59.0687C96.378 60.8623 98.6632 62.0838 101.151 62.5786C103.639 63.0735 106.217 62.8195 108.561 61.8488C110.904 60.8781 112.907 59.2343 114.317 57.1252C115.726 55.0162 116.478 52.5366 116.478 50C116.474 46.5999 115.122 43.3401 112.717 40.9358C110.313 38.5315 107.053 37.179 103.653 37.175ZM103.653 57.8881C102.2 57.8888 100.774 57.4879 99.534 56.7296C98.2939 55.9713 97.2875 54.8851 96.6258 53.5909C95.9641 52.2967 95.6729 50.8449 95.7843 49.3956C95.8956 47.9464 96.4053 46.5561 97.257 45.3782C98.1087 44.2003 99.2692 43.2807 100.611 42.7208C101.952 42.1608 103.422 41.9825 104.858 42.2053C106.295 42.4281 107.641 43.0435 108.75 43.9835C109.859 44.9234 110.686 46.1515 111.141 47.5321H103.653V52.468H111.141C110.62 54.0434 109.617 55.4147 108.273 56.3876C106.928 57.3604 105.312 57.8854 103.653 57.8881Z" fill="#7A7A7A"></path></svg>