<svg xmlns="http://www.w3.org/2000/svg" width="179" height="100" viewBox="0 0 179 100" fill="none"><path d="M46.568 41.39H48.568V55.31H54.568V57.31H46.568V41.39ZM60.798 41.39C61.9847 41.39 63.1447 41.7419 64.1314 42.4012C65.1181 43.0605 65.8871 43.9976 66.3413 45.0939C66.7954 46.1903 66.9142 47.3967 66.6827 48.5606C66.4512 49.7244 65.8798 50.7935 65.0406 51.6327C64.2015 52.4718 63.1324 53.0432 61.9685 53.2747C60.8047 53.5062 59.5982 53.3874 58.5019 52.9333C57.4055 52.4792 56.4685 51.7101 55.8092 50.7234C55.1499 49.7367 54.798 48.5767 54.798 47.39C54.798 46.6021 54.9532 45.8219 55.2547 45.0939C55.5562 44.366 55.9982 43.7045 56.5554 43.1474C57.1125 42.5902 57.7739 42.1483 58.5019 41.8467C59.2298 41.5452 60.0101 41.39 60.798 41.39ZM60.798 51.39C61.5891 51.39 62.3625 51.1554 63.0203 50.7159C63.6781 50.2764 64.1908 49.6517 64.4935 48.9207C64.7963 48.1898 64.8755 47.3856 64.7211 46.6096C64.5668 45.8337 64.1858 45.121 63.6264 44.5616C63.067 44.0022 62.3543 43.6212 61.5784 43.4669C60.8024 43.3125 59.9982 43.3917 59.2673 43.6945C58.5364 43.9972 57.9116 44.5099 57.4721 45.1677C57.0326 45.8255 56.798 46.5989 56.798 47.39C56.8033 48.4474 57.227 49.4597 57.9766 50.2055C58.7262 50.9513 59.7406 51.37 60.798 51.37V51.39ZM56.798 55.33H64.798V57.33H56.798V55.33ZM82.398 57.33H80.398V55.9C79.1082 56.8028 77.5724 57.288 75.998 57.29C74.6555 57.299 73.3323 56.97 72.1504 56.3333C70.9684 55.6966 69.9657 54.7726 69.2347 53.6466C68.5036 52.5206 68.0676 51.2287 67.967 49.89C67.8663 48.5512 68.1042 47.2087 68.6587 45.986C69.2132 44.7633 70.0665 43.6999 71.1399 42.8936C72.2134 42.0873 73.4725 41.5641 74.8012 41.3723C76.13 41.1804 77.4857 41.3261 78.7433 41.7958C80.001 42.2655 81.1203 43.0441 81.998 44.06L80.528 45.37C79.8604 44.6236 79.0167 44.0562 78.0736 43.7195C77.1306 43.3827 76.1183 43.2874 75.129 43.4421C74.1396 43.5967 73.2048 43.9966 72.4095 44.6051C71.6143 45.2137 70.984 46.0116 70.5762 46.9261C70.1683 47.8406 69.9958 48.8426 70.0744 49.8409C70.153 50.8392 70.4801 51.8019 71.0261 52.6413C71.5721 53.4808 72.3194 54.1702 73.2001 54.6468C74.0807 55.1234 75.0666 55.372 76.068 55.37C76.899 55.3717 77.7206 55.1939 78.4766 54.8487C79.2325 54.5035 79.905 53.9991 80.448 53.37H75.048V51.37H82.418L82.398 57.33ZM89.758 41.43C90.9447 41.43 92.1047 41.7819 93.0914 42.4412C94.0781 43.1005 94.8471 44.0376 95.3013 45.1339C95.7554 46.2303 95.8742 47.4367 95.6427 48.6006C95.4112 49.7644 94.8398 50.8335 94.0006 51.6727C93.1615 52.5118 92.0924 53.0832 90.9285 53.3147C89.7647 53.5462 88.5583 53.4274 87.4619 52.9733C86.3655 52.5192 85.4285 51.7501 84.7692 50.7634C84.1099 49.7767 83.758 48.6167 83.758 47.43C83.7527 46.637 83.9047 45.8509 84.2051 45.117C84.5055 44.3831 84.9484 43.716 85.5082 43.1544C86.068 42.5927 86.7336 42.1476 87.4665 41.8448C88.1994 41.5419 88.985 41.3873 89.778 41.39L89.758 41.43ZM89.758 51.43C90.5491 51.43 91.3225 51.1954 91.9803 50.7559C92.6381 50.3164 93.1508 49.6917 93.4535 48.9607C93.7563 48.2298 93.8355 47.4256 93.6811 46.6497C93.5268 45.8737 93.1458 45.161 92.5864 44.6016C92.027 44.0422 91.3143 43.6612 90.5384 43.5069C89.7624 43.3525 88.9582 43.4317 88.2273 43.7345C87.4964 44.0372 86.8716 44.5499 86.4321 45.2077C85.9926 45.8655 85.758 46.6389 85.758 47.43C85.7738 48.4839 86.2049 49.489 86.9577 50.2268C87.7104 50.9646 88.724 51.3754 89.778 51.37L89.758 51.43ZM85.758 55.37H93.758V57.37H85.758V55.37ZM97.888 41.39H99.888V57.29H97.888V41.39ZM102.658 41.39H104.658C104.761 41.3791 104.865 41.3791 104.968 41.39C105.806 41.2991 106.653 41.3857 107.455 41.644C108.257 41.9024 108.995 42.3267 109.622 42.8894C110.25 43.4521 110.751 44.1406 111.094 44.91C111.438 45.6794 111.615 46.5125 111.615 47.355C111.615 48.1975 111.438 49.0306 111.094 49.8C110.751 50.5694 110.25 51.2579 109.622 51.8206C108.995 52.3833 108.257 52.8076 107.455 53.066C106.653 53.3243 105.806 53.4109 104.968 53.32H104.658V57.32H102.658V41.39ZM104.658 43.39V51.3H104.968C105.533 51.3752 106.107 51.3289 106.653 51.1641C107.198 50.9992 107.702 50.7198 108.131 50.3443C108.56 49.9689 108.903 49.5062 109.139 48.9872C109.374 48.4682 109.496 47.9049 109.496 47.335C109.496 46.7651 109.374 46.2018 109.139 45.6828C108.903 45.1638 108.56 44.7011 108.131 44.3257C107.702 43.9503 107.198 43.6708 106.653 43.506C106.107 43.3411 105.533 43.2948 104.968 43.37C104.859 43.3813 104.752 43.4048 104.648 43.44L104.658 43.39ZM119.068 42.54L117.588 43.71C117.333 43.4432 117.006 43.2548 116.648 43.167C116.289 43.0792 115.913 43.0956 115.563 43.2143C115.213 43.3329 114.905 43.549 114.674 43.8369C114.442 44.1249 114.298 44.4729 114.258 44.84V45C114.258 45.88 114.868 46.47 116.058 46.55C120.638 46.83 122.738 48.98 122.738 51.82V52C122.62 53.124 122.181 54.1905 121.474 55.0724C120.768 55.9544 119.822 56.6148 118.751 56.975C117.68 57.3353 116.527 57.3802 115.431 57.1046C114.335 56.8289 113.341 56.2442 112.568 55.42L114.098 54.24C114.454 54.6217 114.889 54.9213 115.373 55.1182C115.856 55.315 116.377 55.4044 116.898 55.38C117.861 55.4308 118.807 55.1075 119.537 54.4777C120.268 53.8478 120.726 52.9602 120.818 52V51.86C120.818 49.19 118.198 48.7 115.928 48.48C113.828 48.28 112.318 46.97 112.318 45.08V45C112.392 44.016 112.841 43.098 113.572 42.4356C114.304 41.7731 115.262 41.4167 116.248 41.44C116.771 41.4246 117.291 41.5189 117.775 41.717C118.259 41.9151 118.696 42.2125 119.058 42.59L119.068 42.54ZM130.568 55.26C133.058 55.26 135.028 52.57 135.028 49.26V41.26H137.028V49.26C137.028 53.66 134.148 57.21 130.608 57.21C127.068 57.21 124.188 53.66 124.188 49.26V41.26H126.188V49.26C126.108 52.62 128.078 55.31 130.558 55.31L130.568 55.26ZM152.378 57.26H150.378V47.36L145.768 53.36L141.158 47.36V57.29H139.158V41.39L145.758 50.08L152.358 41.39L152.378 57.26Z" fill="#7A7A7A"></path><path d="M36.968 39.0001C36.968 37.5573 36.3949 36.1736 35.3747 35.1534C34.3545 34.1332 32.9708 33.5601 31.528 33.5601C30.0852 33.5601 28.7016 34.1332 27.6814 35.1534C26.6612 36.1736 26.088 37.5573 26.088 39.0001V55.4501L30.568 58.6601V66.4801H32.488V58.6601L36.968 55.4501V39.0001ZM35.048 48.2001L32.488 50.7601V48.3601L35.048 45.8001V48.2001ZM28.048 45.8001L30.608 48.3601V50.7601L28.048 48.2001V45.8001ZM35.048 43.0801L31.528 46.6001L28.008 43.0001V40.6001L31.528 44.1201L35.048 40.6001V43.0801ZM31.528 35.4801C32.3022 35.4835 33.0538 35.7406 33.6679 36.212C34.282 36.6834 34.7246 37.3431 34.928 38.0901L31.528 41.4801L28.128 38.0901C28.324 37.3357 28.7634 36.667 29.3781 36.1879C29.9929 35.7087 30.7486 35.4459 31.528 35.4401V35.4801ZM28.008 54.4801V50.8801L30.568 53.4401V56.3001L28.008 54.4801ZM32.488 56.3101V53.4401L35.048 50.8801V54.4701L32.488 56.3101Z" fill="#7A7A7A"></path></svg>