<svg xmlns="http://www.w3.org/2000/svg" width="179" height="100" viewBox="0 0 179 100" fill="none"><path d="M39.348 54.79H42.348V69.5H39.348V54.79Z" fill="#7A7A7A"></path><path d="M44.088 64.4601C44.086 63.4035 44.3975 62.3701 44.9831 61.4906C45.5687 60.6112 46.402 59.9252 47.3775 59.5195C48.3531 59.1138 49.4271 59.0066 50.4636 59.2115C51.5002 59.4164 52.4526 59.9242 53.2004 60.6706C53.9482 61.417 54.4578 62.3685 54.6647 63.4046C54.8715 64.4408 54.7664 65.515 54.3625 66.4913C53.9586 67.4677 53.2742 68.3022 52.3958 68.8895C51.5174 69.4767 50.4846 69.7901 49.428 69.7901C48.7254 69.7981 48.0282 69.6658 47.3774 69.4009C46.7265 69.136 46.1351 68.7439 45.6377 68.2475C45.1404 67.7511 44.7472 67.1604 44.481 66.51C44.2149 65.8597 44.0813 65.1628 44.088 64.4601ZM51.748 64.4601C51.7362 64.004 51.5902 63.5615 51.3282 63.1879C51.0662 62.8144 50.6999 62.5264 50.275 62.36C49.8502 62.1935 49.3858 62.1561 48.9397 62.2522C48.4937 62.3484 48.086 62.574 47.7675 62.9007C47.449 63.2274 47.2339 63.6408 47.1492 64.0891C47.0644 64.5374 47.1137 65.0008 47.2909 65.4212C47.4682 65.8417 47.7654 66.2005 48.1455 66.4529C48.5257 66.7053 48.9717 66.84 49.428 66.8401C49.7402 66.8488 50.0508 66.7928 50.3402 66.6755C50.6296 66.5582 50.8916 66.3822 51.1096 66.1585C51.3276 65.9349 51.4968 65.6685 51.6067 65.3762C51.7166 65.0839 51.7647 64.772 51.748 64.4601Z" fill="#7A7A7A"></path><path d="M66.828 59.42V69C66.828 72.39 64.178 73.82 61.498 73.82C60.5556 73.8901 59.612 73.6995 58.7707 73.2691C57.9294 72.8387 57.2227 72.1852 56.728 71.38L59.308 69.89C59.5127 70.3026 59.8366 70.6443 60.2378 70.8708C60.639 71.0972 61.0989 71.198 61.558 71.16C61.8601 71.2103 62.1698 71.1906 62.463 71.1024C62.7563 71.0141 63.0254 70.8597 63.2496 70.651C63.4738 70.4423 63.647 70.1849 63.756 69.8986C63.8649 69.6124 63.9067 69.3049 63.878 69V68.07C63.5253 68.5039 63.0753 68.8486 62.5645 69.0762C62.0537 69.3038 61.4965 69.4079 60.938 69.38C59.5801 69.38 58.2778 68.8405 57.3176 67.8804C56.3574 66.9202 55.818 65.6179 55.818 64.26C55.818 62.9021 56.3574 61.5998 57.3176 60.6396C58.2778 59.6794 59.5801 59.14 60.938 59.14C61.4962 59.1145 62.0526 59.2196 62.563 59.447C63.0734 59.6745 63.5237 60.0179 63.878 60.45V59.45L66.828 59.42ZM63.878 64.26C63.8979 63.7736 63.772 63.2924 63.5163 62.8782C63.2606 62.464 62.8868 62.1358 62.4431 61.9357C61.9994 61.7356 61.506 61.6728 61.0262 61.7553C60.5465 61.8379 60.1025 62.062 59.7512 62.3989C59.3999 62.7358 59.1573 63.1701 59.0548 63.646C58.9523 64.1218 58.9944 64.6174 59.1758 65.0691C59.3571 65.5208 59.6695 65.908 60.0726 66.1808C60.4757 66.4536 60.9512 66.5996 61.438 66.6C61.7557 66.6225 62.0746 66.5781 62.3741 66.4698C62.6737 66.3615 62.9472 66.1917 63.1771 65.9712C63.407 65.7508 63.5881 65.4846 63.7088 65.1899C63.8295 64.8951 63.8872 64.5784 63.878 64.26Z" fill="#7A7A7A"></path><path d="M68.558 64.4601C68.556 63.4035 68.8675 62.3701 69.4531 61.4906C70.0386 60.6112 70.8719 59.9252 71.8475 59.5195C72.8231 59.1138 73.8971 59.0066 74.9336 59.2115C75.9701 59.4164 76.9226 59.9242 77.6704 60.6706C78.4182 61.417 78.9278 62.3685 79.1346 63.4046C79.3415 64.4408 79.2363 65.515 78.8324 66.4913C78.4286 67.4677 77.7441 68.3022 76.8658 68.8895C75.9874 69.4767 74.9546 69.7901 73.898 69.7901C73.1953 69.7981 72.4982 69.6658 71.8473 69.4009C71.1965 69.136 70.6051 68.7439 70.1077 68.2475C69.6104 67.7511 69.2171 67.1604 68.951 66.51C68.6849 65.8597 68.5513 65.1628 68.558 64.4601ZM76.218 64.4601C76.2062 64.004 76.0602 63.5615 75.7982 63.1879C75.5362 62.8144 75.1698 62.5264 74.745 62.36C74.3202 62.1935 73.8557 62.1561 73.4097 62.2522C72.9637 62.3484 72.5559 62.574 72.2375 62.9007C71.919 63.2274 71.7039 63.6408 71.6191 64.0891C71.5344 64.5374 71.5837 65.0008 71.7609 65.4212C71.9381 65.8417 72.2354 66.2005 72.6155 66.4529C72.9956 66.7053 73.4417 66.84 73.898 66.8401C74.2085 66.846 74.5169 66.7879 74.8039 66.6694C75.091 66.5508 75.3505 66.3744 75.5663 66.151C75.7822 65.9277 75.9496 65.6623 76.0583 65.3714C76.167 65.0804 76.2145 64.7702 76.198 64.4601H76.218Z" fill="#7A7A7A"></path><path d="M80.6279 56.7199C80.6279 56.3599 80.7347 56.0081 80.9347 55.7088C81.1346 55.4095 81.4189 55.1762 81.7514 55.0384C82.084 54.9007 82.4499 54.8646 82.803 54.9349C83.156 55.0051 83.4803 55.1784 83.7349 55.433C83.9894 55.6875 84.1627 56.0118 84.233 56.3648C84.3032 56.7179 84.2671 57.0838 84.1294 57.4164C83.9916 57.7489 83.7584 58.0332 83.4591 58.2332C83.1598 58.4332 82.8079 58.5399 82.4479 58.5399C81.966 58.5373 81.5046 58.3447 81.1639 58.0039C80.8231 57.6632 80.6306 57.2018 80.6279 56.7199ZM80.9379 59.4199H83.9379V69.4999H80.9379V59.4199Z" fill="#7A7A7A"></path><path d="M97.018 64.4599C97.0544 65.1262 96.9586 65.7931 96.7362 66.4223C96.5138 67.0514 96.1691 67.6303 95.722 68.1257C95.275 68.6211 94.7343 69.0232 94.1312 69.3088C93.5282 69.5944 92.8745 69.7579 92.208 69.7899C91.6484 69.8168 91.0898 69.7205 90.5714 69.508C90.0531 69.2955 89.5877 68.9719 89.208 68.5599V73.5599H86.208V59.4199H89.208V60.3699C89.5877 59.958 90.0531 59.6343 90.5714 59.4218C91.0898 59.2093 91.6484 59.113 92.208 59.1399C92.8737 59.1719 93.5264 59.3351 94.1288 59.6201C94.7312 59.905 95.2714 60.3062 95.7183 60.8005C96.1653 61.2949 96.5102 61.8726 96.7332 62.5006C96.9562 63.1286 97.053 63.7944 97.018 64.4599ZM94.018 64.4599C94.0061 63.9906 93.8568 63.535 93.5886 63.1496C93.3204 62.7643 92.9451 62.4661 92.5091 62.2919C92.0731 62.1177 91.5956 62.0753 91.1357 62.1698C90.6758 62.2643 90.2537 62.4916 89.9217 62.8236C89.5897 63.1556 89.3624 63.5777 89.2679 64.0376C89.1734 64.4975 89.2159 64.975 89.39 65.411C89.5642 65.847 89.8624 66.2223 90.2477 66.4905C90.6331 66.7587 91.0887 66.908 91.558 66.9199C91.8856 66.9407 92.2138 66.8912 92.5206 66.7747C92.8274 66.6581 93.1057 66.4773 93.3369 66.2442C93.568 66.0112 93.7466 65.7314 93.8606 65.4236C93.9747 65.1159 94.0215 64.7873 93.998 64.4599H94.018Z" fill="#7A7A7A"></path><path d="M106.358 66.48C106.358 68.8 104.358 69.79 102.158 69.79C101.279 69.8678 100.397 69.6808 99.6255 69.2531C98.8538 68.8254 98.2278 68.1765 97.828 67.39L100.448 65.9C100.554 66.2638 100.782 66.5802 101.093 66.7966C101.404 67.0131 101.78 67.1166 102.158 67.09C102.888 67.09 103.248 66.86 103.248 66.46C103.248 65.35 98.248 65.94 98.248 62.46C98.248 60.26 100.108 59.15 102.248 59.15C103.038 59.126 103.819 59.3136 104.512 59.6934C105.205 60.0732 105.784 60.6313 106.188 61.31L103.558 62.69C103.442 62.4259 103.251 62.2012 103.01 62.0432C102.769 61.8852 102.487 61.8007 102.198 61.8C101.678 61.8 101.358 62 101.358 62.37C101.398 63.52 106.358 62.75 106.358 66.48Z" fill="#7A7A7A"></path><path d="M117.398 59.4199V69.4999H114.398V68.5599C114.049 68.9776 113.606 69.3068 113.106 69.5205C112.605 69.7343 112.061 69.8266 111.518 69.7899C109.518 69.7899 107.748 68.3399 107.748 65.6099V59.4199H110.748V65.1699C110.722 65.415 110.75 65.6628 110.832 65.8954C110.913 66.1281 111.045 66.3397 111.218 66.5149C111.392 66.6902 111.602 66.8246 111.833 66.9085C112.065 66.9924 112.313 67.0236 112.558 66.9999C113.658 66.9999 114.428 66.3599 114.428 64.9299V59.4199H117.398Z" fill="#7A7A7A"></path><path d="M134.738 63.3199V69.4999H131.738V63.58C131.738 62.58 131.248 61.9199 130.288 61.9199C129.328 61.9199 128.708 62.6299 128.708 63.8199V69.4999H125.708V63.58C125.708 62.58 125.228 61.9199 124.258 61.9199C123.288 61.9199 122.688 62.6299 122.688 63.8199V69.4999H119.688V59.4199H122.688V60.3499C123.002 59.9392 123.413 59.6134 123.884 59.402C124.356 59.1907 124.873 59.1006 125.388 59.1399C125.905 59.1148 126.421 59.2241 126.883 59.4572C127.346 59.6903 127.74 60.0392 128.028 60.47C128.363 60.0196 128.806 59.6614 129.317 59.4288C129.827 59.1962 130.389 59.0968 130.948 59.1399C133.228 59.1399 134.738 60.7999 134.738 63.3199Z" fill="#7A7A7A"></path><path d="M137.298 59.3599C138.535 59.3599 139.538 58.357 139.538 57.1199C139.538 55.8828 138.535 54.8799 137.298 54.8799C136.061 54.8799 135.058 55.8828 135.058 57.1199C135.058 58.357 136.061 59.3599 137.298 59.3599Z" fill="#7A7A7A"></path><path d="M73.298 47.1599C79.0914 47.1599 83.788 42.4634 83.788 36.6699C83.788 30.8765 79.0914 26.1799 73.298 26.1799C67.5045 26.1799 62.808 30.8765 62.808 36.6699C62.808 42.4634 67.5045 47.1599 73.298 47.1599Z" fill="#7A7A7A"></path><path d="M96.7479 47.1599C102.541 47.1599 107.238 42.4634 107.238 36.6699C107.238 30.8765 102.541 26.1799 96.7479 26.1799C90.9545 26.1799 86.2579 30.8765 86.2579 36.6699C86.2579 42.4634 90.9545 47.1599 96.7479 47.1599Z" fill="#7A7A7A"></path><path d="M60.338 26.1799H39.368V47.1499H60.338V26.1799Z" fill="#7A7A7A"></path></svg>