<svg xmlns="http://www.w3.org/2000/svg" width="177" height="100" viewBox="0 0 177 100" fill="none"><path d="M64.7774 49.5345L64.5787 49.5766L70.7435 55.7414V72.5H65.4676L59.2607 66.2931H64.5366L64.5366 49.5344H59.2607V44.2587H64.5366L64.5366 27.5L70.7435 33.7069V44.2586L64.5366 44.2587V49.5344L64.7774 49.5345Z" fill="#555555"></path><path d="M81.2954 49.5345L87.5023 55.7414V50.4656L81.2954 44.2586V49.5345Z" fill="#555555"></path><path d="M64.5786 49.5766L64.7773 49.5345H81.2954L87.5023 55.7414H70.7437L64.5786 49.5766Z" fill="black"></path><path d="M59.2609 49.5344L42.5022 49.5345L48.7091 55.7414H59.2607L59.2609 49.5344Z" fill="black"></path><path d="M93.2703 31.7047H95.8443V39.7032H100.265V41.8701H93.2703V31.7047Z" fill="black"></path><path d="M104.939 42.0882C104.076 42.0882 103.32 41.9331 102.67 41.6228C102.021 41.3029 101.516 40.8667 101.158 40.314C100.809 39.7517 100.634 39.107 100.634 38.3798C100.634 37.6527 100.809 37.0128 101.158 36.4602C101.516 35.8979 102.021 35.4616 102.67 35.1514C103.32 34.8314 104.076 34.6714 104.939 34.6714C105.802 34.6714 106.558 34.8314 107.208 35.1514C107.857 35.4616 108.356 35.8979 108.706 36.4602C109.064 37.0128 109.244 37.6527 109.244 38.3798C109.244 39.107 109.064 39.7517 108.706 40.314C108.356 40.8667 107.857 41.3029 107.208 41.6228C106.558 41.9331 105.802 42.0882 104.939 42.0882ZM104.939 40.0959C105.453 40.0959 105.86 39.9456 106.161 39.6451C106.471 39.3348 106.626 38.9131 106.626 38.3798C106.626 37.8466 106.471 37.4297 106.161 37.1291C105.86 36.8189 105.453 36.6638 104.939 36.6638C104.425 36.6638 104.013 36.8189 103.703 37.1291C103.402 37.4297 103.252 37.8466 103.252 38.3798C103.252 38.9131 103.402 39.3348 103.703 39.6451C104.013 39.9456 104.425 40.0959 104.939 40.0959Z" fill="black"></path><path d="M114.051 45.2149C113.586 45.2149 113.116 45.1713 112.641 45.084C112.175 44.9968 111.773 44.8804 111.434 44.735V42.9608C112.2 43.2904 113.072 43.4553 114.051 43.4553C114.759 43.4553 115.268 43.3098 115.578 43.0189C115.898 42.7281 116.058 42.3016 116.058 41.7392V41.3174C115.777 41.5598 115.428 41.7489 115.012 41.8846C114.604 42.0204 114.167 42.0882 113.702 42.0882C112.966 42.0882 112.316 41.9331 111.754 41.6228C111.191 41.3126 110.751 40.8763 110.43 40.314C110.12 39.7517 109.965 39.107 109.965 38.3798C109.965 37.643 110.12 36.9934 110.43 36.4311C110.741 35.8688 111.177 35.4374 111.739 35.1368C112.301 34.8266 112.946 34.6714 113.673 34.6714C114.672 34.6714 115.496 34.9768 116.146 35.5876V34.8896H118.618V41.3902C118.618 42.6021 118.245 43.5425 117.498 44.2115C116.761 44.8804 115.612 45.2149 114.051 45.2149ZM114.342 40.1104C114.74 40.1104 115.094 40.0086 115.404 39.805C115.714 39.6014 115.932 39.33 116.058 38.9906V37.7691C115.923 37.4297 115.699 37.1631 115.389 36.9692C115.079 36.7656 114.73 36.6638 114.342 36.6638C113.819 36.6638 113.397 36.8189 113.077 37.1291C112.757 37.4297 112.597 37.8418 112.597 38.3653C112.597 38.8985 112.757 39.3251 113.077 39.6451C113.397 39.9553 113.819 40.1104 114.342 40.1104Z" fill="black"></path><path d="M123.572 42.0882C122.709 42.0882 121.952 41.9331 121.303 41.6228C120.653 41.3029 120.149 40.8667 119.79 40.314C119.441 39.7517 119.267 39.107 119.267 38.3798C119.267 37.6527 119.441 37.0128 119.79 36.4602C120.149 35.8979 120.653 35.4616 121.303 35.1514C121.952 34.8314 122.709 34.6714 123.572 34.6714C124.435 34.6714 125.19 34.8314 125.841 35.1514C126.49 35.4616 126.989 35.8979 127.338 36.4602C127.697 37.0128 127.877 37.6527 127.877 38.3798C127.877 39.107 127.697 39.7517 127.338 40.314C126.989 40.8667 126.49 41.3029 125.841 41.6228C125.19 41.9331 124.435 42.0882 123.572 42.0882ZM123.572 40.0959C124.086 40.0959 124.492 39.9456 124.793 39.6451C125.104 39.3348 125.259 38.9131 125.259 38.3798C125.259 37.8466 125.104 37.4297 124.793 37.1291C124.492 36.8189 124.086 36.6638 123.572 36.6638C123.058 36.6638 122.646 36.8189 122.335 37.1291C122.035 37.4297 121.885 37.8466 121.885 38.3798C121.885 38.9131 122.035 39.3348 122.335 39.6451C122.646 39.9456 123.058 40.0959 123.572 40.0959Z" fill="black"></path><path d="M93.2703 45.6115H95.8443V55.7769H93.2703V45.6115Z" fill="black"></path><path d="M97.1475 48.7964H99.6195V49.4944C100.269 48.8836 101.094 48.5782 102.092 48.5782C102.819 48.5782 103.464 48.7334 104.026 49.0436C104.588 49.3442 105.024 49.7756 105.335 50.3379C105.645 50.8905 105.8 51.5353 105.8 52.2721C105.8 52.9992 105.645 53.6488 105.335 54.2208C105.024 54.7831 104.588 55.2194 104.026 55.5296C103.474 55.8399 102.829 55.995 102.092 55.995C101.626 55.995 101.181 55.9223 100.754 55.7769C100.337 55.6412 99.9881 55.4521 99.7071 55.2097V58.9618H97.1475V48.7964ZM101.423 54.0027C101.947 54.0027 102.368 53.8475 102.688 53.5373C103.008 53.2271 103.168 52.8053 103.168 52.2721C103.168 51.7388 103.008 51.322 102.688 51.0214C102.368 50.7112 101.947 50.5561 101.423 50.5561C101.035 50.5561 100.686 50.6579 100.376 50.8615C100.066 51.0553 99.8427 51.322 99.7071 51.6613V52.8974C99.8427 53.2368 100.066 53.5082 100.376 53.7118C100.686 53.9057 101.035 54.0027 101.423 54.0027Z" fill="black"></path><path d="M109.616 55.995C109.054 55.995 108.467 55.9368 107.857 55.8205C107.246 55.7139 106.761 55.5588 106.403 55.3552V53.4791C106.8 53.7118 107.275 53.9057 107.827 54.0609C108.39 54.2063 108.904 54.279 109.369 54.279C109.708 54.279 109.956 54.2547 110.111 54.2063C110.266 54.1578 110.343 54.0609 110.343 53.9154C110.343 53.7991 110.29 53.707 110.183 53.6391C110.086 53.5615 109.902 53.484 109.631 53.4064C109.369 53.3191 109.064 53.2271 108.715 53.1301C108.123 52.9556 107.658 52.7762 107.318 52.592C106.979 52.4078 106.727 52.1752 106.562 51.894C106.398 51.6129 106.315 51.2589 106.315 50.8323C106.315 50.0761 106.61 49.5138 107.202 49.1454C107.803 48.7673 108.623 48.5782 109.66 48.5782C110.164 48.5782 110.692 48.6316 111.245 48.7382C111.807 48.8448 112.229 48.9854 112.51 49.16V51.0069C112.219 50.813 111.832 50.653 111.347 50.5269C110.872 50.4009 110.426 50.3379 110.009 50.3379C109.679 50.3379 109.422 50.3718 109.238 50.4397C109.054 50.4979 108.962 50.6045 108.962 50.7597C108.962 50.9051 109.054 51.0166 109.238 51.0941C109.422 51.1717 109.752 51.2687 110.227 51.385C110.537 51.4625 110.668 51.4965 110.62 51.4868C111.24 51.6516 111.72 51.8358 112.059 52.0394C112.398 52.243 112.636 52.4854 112.772 52.7666C112.917 53.038 112.99 53.387 112.99 53.8136C112.99 54.4826 112.7 55.0158 112.118 55.4133C111.545 55.8011 110.712 55.995 109.616 55.995Z" fill="black"></path><path d="M116.812 55.995C115.852 55.995 115.13 55.7284 114.645 55.1952C114.17 54.6619 113.932 53.9591 113.932 53.0865V48.7964H116.492V52.7956C116.492 53.6004 116.856 54.0027 117.582 54.0027C117.913 54.0027 118.213 53.9251 118.484 53.77C118.756 53.6149 118.978 53.387 119.153 53.0865V48.7964H121.713V55.7769H119.241V55.0207C118.94 55.3407 118.577 55.583 118.15 55.7478C117.723 55.9126 117.277 55.995 116.812 55.995Z" fill="black"></path><path d="M123.023 48.7964H125.394V49.5526C125.684 49.2424 126.019 49.0048 126.397 48.84C126.775 48.6655 127.178 48.5782 127.604 48.5782C128.128 48.5782 128.545 48.6558 128.855 48.8109C129.175 48.966 129.431 49.1987 129.625 49.509C129.916 49.2181 130.27 48.9903 130.687 48.8254C131.104 48.6606 131.526 48.5782 131.952 48.5782C132.873 48.5782 133.528 48.8158 133.916 49.2908C134.304 49.7562 134.498 50.43 134.498 51.3123V55.7769H132.054V51.6758C132.054 51.2881 131.981 51.0069 131.836 50.8323C131.691 50.6579 131.448 50.5706 131.109 50.5706C130.673 50.5706 130.319 50.7257 130.048 51.0359C130.057 51.2008 130.062 51.4529 130.062 51.7922V55.7769H127.619V51.5741C127.619 51.2153 127.555 50.9584 127.43 50.8033C127.304 50.6481 127.081 50.5706 126.761 50.5706C126.266 50.5706 125.839 50.8469 125.481 51.3995V55.7769H123.023V48.7964Z" fill="black"></path><path d="M93.6338 60.5485H97.4003C98.4665 60.5485 99.2954 60.8006 99.8871 61.3048C100.488 61.8089 100.789 62.5554 100.789 63.5443C100.789 64.5429 100.493 65.2895 99.9017 65.7839C99.31 66.2784 98.4763 66.5256 97.4003 66.5256H94.7681V70.7139H93.6338V60.5485ZM97.313 65.5658C98.0402 65.5658 98.6126 65.4204 99.0291 65.1295C99.4463 64.829 99.6542 64.3006 99.6542 63.5443C99.6542 62.7784 99.4463 62.25 99.0291 61.9592C98.6126 61.6586 98.0402 61.5084 97.313 61.5084H94.7681V65.5658H97.313Z" fill="#555555"></path><path d="M102.24 59.9668H103.36V70.7139H102.24V59.9668Z" fill="#555555"></path><path d="M108.215 70.932C107.284 70.932 106.566 70.68 106.062 70.1758C105.567 69.6717 105.321 68.9979 105.321 68.1544V63.7334H106.44V68.2126C106.44 69.4341 107.075 70.0449 108.345 70.0449C108.879 70.0449 109.344 69.9286 109.742 69.6959C110.148 69.4632 110.512 69.0948 110.832 68.5907V63.7334H111.952V70.7139H110.861V69.6668C110.231 70.5103 109.349 70.932 108.215 70.932Z" fill="#555555"></path><path d="M116.414 70.932C115.958 70.932 115.468 70.8642 114.945 70.7284C114.421 70.6024 114.014 70.4425 113.723 70.2485V69.3033C114.092 69.5263 114.514 69.7056 114.989 69.8413C115.473 69.9771 115.938 70.0449 116.385 70.0449C116.986 70.0449 117.417 69.9625 117.679 69.7977C117.951 69.6232 118.086 69.3663 118.086 69.0269C118.086 68.7652 118.028 68.5616 117.912 68.4162C117.795 68.261 117.602 68.1253 117.33 68.009C117.059 67.8926 116.637 67.7569 116.065 67.6018C115.502 67.4466 115.052 67.2867 114.713 67.1219C114.383 66.9473 114.131 66.7292 113.956 66.4674C113.781 66.2057 113.695 65.8711 113.695 65.464C113.695 64.8338 113.946 64.3539 114.45 64.0242C114.964 63.6849 115.643 63.5153 116.486 63.5153C116.942 63.5153 117.369 63.5589 117.766 63.6461C118.173 63.7237 118.513 63.8352 118.784 63.9807V64.9259C118.503 64.7708 118.164 64.6496 117.766 64.5623C117.369 64.4654 116.956 64.4169 116.53 64.4169C115.968 64.4169 115.541 64.4993 115.25 64.6641C114.959 64.829 114.814 65.0956 114.814 65.464C114.814 65.7161 114.863 65.9099 114.959 66.0457C115.066 66.1814 115.255 66.3075 115.527 66.4238C115.808 66.5305 116.254 66.6662 116.865 66.831C117.737 67.0734 118.343 67.3594 118.682 67.689C119.031 68.009 119.206 68.455 119.206 69.0269C119.206 69.6183 118.974 70.0837 118.508 70.4231C118.052 70.7624 117.354 70.932 116.414 70.932Z" fill="#555555"></path></svg>