<svg xmlns="http://www.w3.org/2000/svg" width="504" height="280" viewBox="0 0 504 280" fill="none"><circle cx="140" cy="140" r="140" fill="#1DBFC1"></circle><circle cx="364" cy="140" r="140" fill="#EFFAFA" style="mix-blend-mode:multiply"></circle><path d="M111.816 145H109.716L104.329 136.425V145H102.229V132.914H104.329L109.732 141.522V132.914H111.816V145ZM118.058 145.166C116.78 145.166 115.742 144.765 114.945 143.962C114.154 143.154 113.758 142.081 113.758 140.742V140.493C113.758 139.596 113.93 138.797 114.273 138.094C114.622 137.385 115.109 136.835 115.734 136.442C116.359 136.049 117.056 135.853 117.826 135.853C119.049 135.853 119.992 136.243 120.656 137.023C121.326 137.803 121.661 138.907 121.661 140.335V141.148H115.792C115.853 141.89 116.099 142.477 116.531 142.908C116.968 143.34 117.516 143.556 118.174 143.556C119.098 143.556 119.851 143.182 120.432 142.435L121.52 143.473C121.16 144.009 120.678 144.427 120.075 144.726C119.478 145.019 118.805 145.166 118.058 145.166ZM117.817 137.471C117.264 137.471 116.816 137.665 116.473 138.052C116.135 138.44 115.919 138.979 115.825 139.671H119.668V139.521C119.624 138.846 119.444 138.337 119.129 137.994C118.813 137.646 118.376 137.471 117.817 137.471ZM128.675 144.12C128.083 144.817 127.242 145.166 126.151 145.166C125.177 145.166 124.439 144.881 123.935 144.311C123.437 143.741 123.188 142.917 123.188 141.837V136.019H125.205V141.812C125.205 142.952 125.678 143.522 126.625 143.522C127.604 143.522 128.265 143.171 128.608 142.468V136.019H130.625V145H128.725L128.675 144.12ZM137.382 137.861C137.117 137.817 136.843 137.795 136.561 137.795C135.636 137.795 135.014 138.149 134.693 138.857V145H132.676V136.019H134.602L134.651 137.023C135.138 136.243 135.813 135.853 136.677 135.853C136.965 135.853 137.202 135.891 137.391 135.969L137.382 137.861ZM137.98 140.426C137.98 139.546 138.154 138.755 138.503 138.052C138.852 137.344 139.341 136.802 139.972 136.425C140.603 136.043 141.328 135.853 142.147 135.853C143.359 135.853 144.341 136.243 145.094 137.023C145.852 137.803 146.261 138.838 146.322 140.127L146.331 140.601C146.331 141.486 146.159 142.277 145.816 142.975C145.478 143.672 144.991 144.211 144.355 144.593C143.724 144.975 142.994 145.166 142.164 145.166C140.896 145.166 139.881 144.745 139.117 143.904C138.359 143.058 137.98 141.931 137.98 140.526V140.426ZM139.997 140.601C139.997 141.525 140.188 142.25 140.57 142.775C140.952 143.296 141.483 143.556 142.164 143.556C142.844 143.556 143.373 143.29 143.749 142.759C144.131 142.228 144.322 141.45 144.322 140.426C144.322 139.519 144.125 138.799 143.732 138.268C143.345 137.737 142.817 137.471 142.147 137.471C141.488 137.471 140.965 137.734 140.578 138.26C140.191 138.78 139.997 139.56 139.997 140.601ZM150.182 145H148.165V132.25H150.182V145ZM152.008 140.426C152.008 139.546 152.183 138.755 152.531 138.052C152.88 137.344 153.37 136.802 154 136.425C154.631 136.043 155.356 135.853 156.175 135.853C157.387 135.853 158.369 136.243 159.122 137.023C159.88 137.803 160.29 138.838 160.351 140.127L160.359 140.601C160.359 141.486 160.187 142.277 159.844 142.975C159.507 143.672 159.02 144.211 158.383 144.593C157.752 144.975 157.022 145.166 156.192 145.166C154.925 145.166 153.909 144.745 153.146 143.904C152.387 143.058 152.008 141.931 152.008 140.526V140.426ZM154.025 140.601C154.025 141.525 154.216 142.25 154.598 142.775C154.98 143.296 155.511 143.556 156.192 143.556C156.873 143.556 157.401 143.29 157.777 142.759C158.159 142.228 158.35 141.45 158.35 140.426C158.35 139.519 158.154 138.799 157.761 138.268C157.373 137.737 156.845 137.471 156.175 137.471C155.517 137.471 154.994 137.734 154.606 138.26C154.219 138.78 154.025 139.56 154.025 140.601ZM161.712 140.443C161.712 139.048 162.038 137.936 162.691 137.106C163.35 136.27 164.222 135.853 165.306 135.853C166.33 135.853 167.135 136.209 167.722 136.923L167.813 136.019H169.631V144.726C169.631 145.905 169.263 146.834 168.527 147.515C167.796 148.196 166.809 148.536 165.563 148.536C164.905 148.536 164.26 148.398 163.629 148.121C163.004 147.85 162.528 147.493 162.202 147.05L163.156 145.838C163.776 146.574 164.54 146.942 165.447 146.942C166.117 146.942 166.645 146.76 167.033 146.395C167.42 146.035 167.614 145.504 167.614 144.801V144.195C167.033 144.842 166.258 145.166 165.29 145.166C164.238 145.166 163.378 144.748 162.708 143.913C162.044 143.077 161.712 141.92 161.712 140.443ZM163.721 140.617C163.721 141.519 163.903 142.23 164.269 142.75C164.639 143.265 165.151 143.522 165.804 143.522C166.618 143.522 167.221 143.174 167.614 142.477V138.525C167.232 137.845 166.634 137.504 165.821 137.504C165.157 137.504 164.639 137.767 164.269 138.293C163.903 138.819 163.721 139.593 163.721 140.617ZM174.852 142.111L176.678 136.019H178.828L175.259 146.361C174.711 147.872 173.781 148.627 172.47 148.627C172.176 148.627 171.853 148.578 171.499 148.478V146.917L171.88 146.942C172.389 146.942 172.771 146.848 173.026 146.66C173.286 146.478 173.491 146.168 173.64 145.73L173.931 144.958L170.776 136.019H172.951L174.852 142.111Z" fill="white"></path><path d="M338.874 139.272C338.874 140.457 338.669 141.497 338.26 142.394C337.85 143.285 337.264 143.971 336.5 144.452C335.742 144.928 334.868 145.166 333.877 145.166C332.897 145.166 332.023 144.928 331.254 144.452C330.49 143.971 329.898 143.287 329.478 142.402C329.062 141.516 328.852 140.495 328.847 139.339V138.658C328.847 137.479 329.054 136.439 329.469 135.537C329.89 134.635 330.479 133.946 331.237 133.47C332.001 132.989 332.875 132.748 333.86 132.748C334.845 132.748 335.717 132.986 336.475 133.462C337.239 133.932 337.828 134.613 338.243 135.504C338.658 136.389 338.868 137.421 338.874 138.6V139.272ZM336.774 138.642C336.774 137.302 336.519 136.276 336.01 135.562C335.507 134.848 334.79 134.491 333.86 134.491C332.953 134.491 332.242 134.848 331.727 135.562C331.218 136.27 330.958 137.275 330.947 138.575V139.272C330.947 140.601 331.204 141.627 331.719 142.352C332.239 143.077 332.958 143.439 333.877 143.439C334.807 143.439 335.521 143.085 336.019 142.377C336.522 141.669 336.774 140.634 336.774 139.272V138.642ZM342.643 136.019L342.701 137.056C343.365 136.254 344.236 135.853 345.315 135.853C347.186 135.853 348.138 136.923 348.171 139.065V145H346.154V139.181C346.154 138.611 346.029 138.191 345.78 137.919C345.537 137.643 345.136 137.504 344.577 137.504C343.763 137.504 343.157 137.872 342.759 138.608V145H340.742V136.019H342.643ZM353.923 143.556C354.427 143.556 354.845 143.409 355.177 143.116C355.509 142.822 355.686 142.46 355.708 142.028H357.609C357.587 142.587 357.412 143.11 357.086 143.597C356.759 144.079 356.317 144.46 355.758 144.743C355.199 145.025 354.596 145.166 353.948 145.166C352.692 145.166 351.696 144.759 350.96 143.946C350.224 143.132 349.856 142.009 349.856 140.576V140.368C349.856 139.001 350.221 137.908 350.952 137.089C351.682 136.265 352.678 135.853 353.94 135.853C355.008 135.853 355.877 136.165 356.546 136.791C357.222 137.41 357.576 138.227 357.609 139.239H355.708C355.686 138.725 355.509 138.301 355.177 137.969C354.85 137.637 354.432 137.471 353.923 137.471C353.27 137.471 352.767 137.709 352.413 138.185C352.058 138.655 351.879 139.372 351.873 140.335V140.659C351.873 141.633 352.047 142.36 352.396 142.842C352.75 143.318 353.259 143.556 353.923 143.556ZM358.754 140.426C358.754 139.546 358.929 138.755 359.277 138.052C359.626 137.344 360.116 136.802 360.747 136.425C361.377 136.043 362.102 135.853 362.921 135.853C364.133 135.853 365.116 136.243 365.868 137.023C366.626 137.803 367.036 138.838 367.097 140.127L367.105 140.601C367.105 141.486 366.933 142.277 366.59 142.975C366.253 143.672 365.766 144.211 365.129 144.593C364.499 144.975 363.768 145.166 362.938 145.166C361.671 145.166 360.655 144.745 359.892 143.904C359.133 143.058 358.754 141.931 358.754 140.526V140.426ZM360.771 140.601C360.771 141.525 360.962 142.25 361.344 142.775C361.726 143.296 362.257 143.556 362.938 143.556C363.619 143.556 364.147 143.29 364.523 142.759C364.905 142.228 365.096 141.45 365.096 140.426C365.096 139.519 364.9 138.799 364.507 138.268C364.119 137.737 363.591 137.471 362.921 137.471C362.263 137.471 361.74 137.734 361.353 138.26C360.965 138.78 360.771 139.56 360.771 140.601ZM370.957 145H368.939V132.25H370.957V145ZM372.783 140.426C372.783 139.546 372.957 138.755 373.306 138.052C373.654 137.344 374.144 136.802 374.775 136.425C375.406 136.043 376.131 135.853 376.95 135.853C378.162 135.853 379.144 136.243 379.896 137.023C380.655 137.803 381.064 138.838 381.125 140.127L381.133 140.601C381.133 141.486 380.962 142.277 380.619 142.975C380.281 143.672 379.794 144.211 379.158 144.593C378.527 144.975 377.796 145.166 376.966 145.166C375.699 145.166 374.684 144.745 373.92 143.904C373.162 143.058 372.783 141.931 372.783 140.526V140.426ZM374.8 140.601C374.8 141.525 374.991 142.25 375.373 142.775C375.754 143.296 376.286 143.556 376.966 143.556C377.647 143.556 378.175 143.29 378.552 142.759C378.934 142.228 379.125 141.45 379.125 140.426C379.125 139.519 378.928 138.799 378.535 138.268C378.148 137.737 377.619 137.471 376.95 137.471C376.291 137.471 375.768 137.734 375.381 138.26C374.993 138.78 374.8 139.56 374.8 140.601ZM382.486 140.443C382.486 139.048 382.813 137.936 383.466 137.106C384.124 136.27 384.996 135.853 386.081 135.853C387.104 135.853 387.91 136.209 388.496 136.923L388.587 136.019H390.405V144.726C390.405 145.905 390.037 146.834 389.301 147.515C388.571 148.196 387.583 148.536 386.338 148.536C385.679 148.536 385.035 148.398 384.404 148.121C383.778 147.85 383.303 147.493 382.976 147.05L383.931 145.838C384.55 146.574 385.314 146.942 386.222 146.942C386.891 146.942 387.42 146.76 387.807 146.395C388.194 146.035 388.388 145.504 388.388 144.801V144.195C387.807 144.842 387.032 145.166 386.064 145.166C385.013 145.166 384.152 144.748 383.482 143.913C382.818 143.077 382.486 141.92 382.486 140.443ZM384.495 140.617C384.495 141.519 384.678 142.23 385.043 142.75C385.414 143.265 385.926 143.522 386.579 143.522C387.392 143.522 387.995 143.174 388.388 142.477V138.525C388.006 137.845 387.409 137.504 386.595 137.504C385.931 137.504 385.414 137.767 385.043 138.293C384.678 138.819 384.495 139.593 384.495 140.617ZM395.626 142.111L397.453 136.019H399.603L396.033 146.361C395.485 147.872 394.556 148.627 393.244 148.627C392.951 148.627 392.627 148.578 392.273 148.478V146.917L392.655 146.942C393.164 146.942 393.546 146.848 393.8 146.66C394.06 146.478 394.265 146.168 394.415 145.73L394.705 144.958L391.551 136.019H393.726L395.626 142.111Z" fill="#1DBFC1"></path></svg>