<svg xmlns="http://www.w3.org/2000/svg" width="256" height="256" viewBox="0 0 256 256" fill="none"><g opacity="0.64"><rect width="4" height="4" fill="#1DBFC1"></rect><rect x="36" width="4" height="4" fill="#1DBFC1"></rect><rect x="72" width="4" height="4" fill="#1DBFC1"></rect><rect x="108" width="4" height="4" fill="#1DBFC1"></rect><rect x="144" width="4" height="4" fill="#1DBFC1"></rect><rect x="180" width="4" height="4" fill="#1DBFC1"></rect><rect x="216" width="4" height="4" fill="#1DBFC1"></rect><rect x="252" width="4" height="4" fill="#1DBFC1"></rect><rect y="36" width="4" height="4" fill="#1DBFC1"></rect><rect x="36" y="36" width="4" height="4" fill="#1DBFC1"></rect><rect x="72" y="36" width="4" height="4" fill="#1DBFC1"></rect><rect x="108" y="36" width="4" height="4" fill="#1DBFC1"></rect><rect x="144" y="36" width="4" height="4" fill="#1DBFC1"></rect><rect x="180" y="36" width="4" height="4" fill="#1DBFC1"></rect><rect x="216" y="36" width="4" height="4" fill="#1DBFC1"></rect><rect x="252" y="36" width="4" height="4" fill="#1DBFC1"></rect><rect y="72" width="4" height="4" fill="#1DBFC1"></rect><rect x="36" y="72" width="4" height="4" fill="#1DBFC1"></rect><rect x="72" y="72" width="4" height="4" fill="#1DBFC1"></rect><rect x="108" y="72" width="4" height="4" fill="#1DBFC1"></rect><rect x="144" y="72" width="4" height="4" fill="#1DBFC1"></rect><rect x="180" y="72" width="4" height="4" fill="#1DBFC1"></rect><rect x="216" y="72" width="4" height="4" fill="#1DBFC1"></rect><rect x="252" y="72" width="4" height="4" fill="#1DBFC1"></rect><rect y="108" width="4" height="4" fill="#1DBFC1"></rect><rect x="36" y="108" width="4" height="4" fill="#1DBFC1"></rect><rect x="72" y="108" width="4" height="4" fill="#1DBFC1"></rect><rect x="108" y="108" width="4" height="4" fill="#1DBFC1"></rect><rect x="144" y="108" width="4" height="4" fill="#1DBFC1"></rect><rect x="180" y="108" width="4" height="4" fill="#1DBFC1"></rect><rect x="216" y="108" width="4" height="4" fill="#1DBFC1"></rect><rect x="252" y="108" width="4" height="4" fill="#1DBFC1"></rect><rect y="144" width="4" height="4" fill="#1DBFC1"></rect><rect x="36" y="144" width="4" height="4" fill="#1DBFC1"></rect><rect x="72" y="144" width="4" height="4" fill="#1DBFC1"></rect><rect x="108" y="144" width="4" height="4" fill="#1DBFC1"></rect><rect x="144" y="144" width="4" height="4" fill="#1DBFC1"></rect><rect x="180" y="144" width="4" height="4" fill="#1DBFC1"></rect><rect x="216" y="144" width="4" height="4" fill="#1DBFC1"></rect><rect x="252" y="144" width="4" height="4" fill="#1DBFC1"></rect><rect y="180" width="4" height="4" fill="#1DBFC1"></rect><rect x="36" y="180" width="4" height="4" fill="#1DBFC1"></rect><rect x="72" y="180" width="4" height="4" fill="#1DBFC1"></rect><rect x="108" y="180" width="4" height="4" fill="#1DBFC1"></rect><rect x="144" y="180" width="4" height="4" fill="#1DBFC1"></rect><rect x="180" y="180" width="4" height="4" fill="#1DBFC1"></rect><rect x="216" y="180" width="4" height="4" fill="#1DBFC1"></rect><rect x="252" y="180" width="4" height="4" fill="#1DBFC1"></rect><rect y="216" width="4" height="4" fill="#1DBFC1"></rect><rect x="36" y="216" width="4" height="4" fill="#1DBFC1"></rect><rect x="72" y="216" width="4" height="4" fill="#1DBFC1"></rect><rect x="108" y="216" width="4" height="4" fill="#1DBFC1"></rect><rect x="144" y="216" width="4" height="4" fill="#1DBFC1"></rect><rect x="180" y="216" width="4" height="4" fill="#1DBFC1"></rect><rect x="216" y="216" width="4" height="4" fill="#1DBFC1"></rect><rect x="252" y="216" width="4" height="4" fill="#1DBFC1"></rect><rect y="252" width="4" height="4" fill="#1DBFC1"></rect><rect x="36" y="252" width="4" height="4" fill="#1DBFC1"></rect><rect x="72" y="252" width="4" height="4" fill="#1DBFC1"></rect><rect x="108" y="252" width="4" height="4" fill="#1DBFC1"></rect><rect x="144" y="252" width="4" height="4" fill="#1DBFC1"></rect><rect x="180" y="252" width="4" height="4" fill="#1DBFC1"></rect><rect x="216" y="252" width="4" height="4" fill="#1DBFC1"></rect><rect x="252" y="252" width="4" height="4" fill="#1DBFC1"></rect></g></svg>