<svg width="193" height="42" viewBox="0 0 193 42" fill="none" xmlns="http://www.w3.org/2000/svg">
<rect x="16.8" y="-0.00109863" width="8.4" height="16.8421" rx="4.2" fill="#1DBFC1"/>
<rect x="16.8" y="25.1589" width="8.4" height="16.8421" rx="4.2" fill="#1DBFC1"/>
<rect x="16.8" y="16.8409" width="8.42105" height="16.8" rx="4.21053" transform="rotate(90 16.8 16.8409)" fill="#1DBFC1"/>
<rect x="42" y="16.8409" width="8.42105" height="16.8" rx="4.21053" transform="rotate(90 42 16.8409)" fill="#1DBFC1"/>
<rect opacity="0.4" x="12.6" y="4.20935" width="8.42105" height="8.4" rx="4.2" transform="rotate(90 12.6 4.20935)" fill="#1DBFC1"/>
<rect opacity="0.4" x="12.6" y="29.4725" width="8.42105" height="8.4" rx="4.2" transform="rotate(90 12.6 29.4725)" fill="#1DBFC1"/>
<rect opacity="0.4" x="37.8" y="29.4725" width="8.42105" height="8.4" rx="4.2" transform="rotate(90 37.8 29.4725)" fill="#1DBFC1"/>
<rect opacity="0.4" x="37.8" y="4.20935" width="8.42105" height="8.4" rx="4.2" transform="rotate(90 37.8 4.20935)" fill="#1DBFC1"/>
<path d="M68.5819 32.3516C66.6952 32.3516 65.0663 31.9473 63.6952 31.1387C62.3241 30.3184 61.2694 29.2168 60.5311 27.834C59.7928 26.4395 59.4237 24.8809 59.4237 23.1582V22.4375C59.4237 20.457 59.7987 18.7344 60.5487 17.2695C61.2987 15.793 62.3241 14.6504 63.6249 13.8418C64.9374 13.0332 66.4198 12.6289 68.0721 12.6289C69.9003 12.6289 71.4178 13.0273 72.6249 13.8242C73.8319 14.6094 74.7343 15.7051 75.3319 17.1113C75.9296 18.5059 76.2284 20.123 76.2284 21.9629V23.8438H61.5155V20.6973H71.9218V20.3633C71.8983 19.625 71.7577 18.9336 71.4999 18.2891C71.2421 17.6445 70.8319 17.123 70.2694 16.7246C69.7186 16.3262 68.9803 16.127 68.0546 16.127C67.1288 16.127 66.3495 16.3906 65.7167 16.918C65.0839 17.4336 64.6034 18.166 64.2753 19.1152C63.9471 20.0527 63.7831 21.1602 63.7831 22.4375V23.1582C63.7831 24.2363 63.9823 25.2031 64.3807 26.0586C64.7792 26.9141 65.3593 27.5938 66.121 28.0977C66.8827 28.5898 67.7909 28.8359 68.8456 28.8359C69.8651 28.8359 70.7675 28.6367 71.5526 28.2383C72.3495 27.8398 73.035 27.2656 73.6093 26.5156L75.8944 28.8008C75.2968 29.7031 74.3944 30.5234 73.1874 31.2617C71.9921 31.9883 70.4569 32.3516 68.5819 32.3516ZM89.0272 12.9805H93.5448L86.9706 32H84.1581L84.4393 28.5547L89.0272 12.9805ZM85.6698 28.6074L85.8807 32H83.0858L76.4589 12.9805H80.994L85.6698 28.6074ZM103.566 32.3516C101.68 32.3516 100.051 31.9473 98.6796 31.1387C97.3085 30.3184 96.2538 29.2168 95.5155 27.834C94.7772 26.4395 94.4081 24.8809 94.4081 23.1582V22.4375C94.4081 20.457 94.7831 18.7344 95.5331 17.2695C96.2831 15.793 97.3085 14.6504 98.6093 13.8418C99.9218 13.0332 101.404 12.6289 103.057 12.6289C104.885 12.6289 106.402 13.0273 107.609 13.8242C108.816 14.6094 109.719 15.7051 110.316 17.1113C110.914 18.5059 111.213 20.123 111.213 21.9629V23.8438H96.4999V20.6973H106.906V20.3633C106.883 19.625 106.742 18.9336 106.484 18.2891C106.226 17.6445 105.816 17.123 105.254 16.7246C104.703 16.3262 103.965 16.127 103.039 16.127C102.113 16.127 101.334 16.3906 100.701 16.918C100.068 17.4336 99.5878 18.166 99.2596 19.1152C98.9315 20.0527 98.7675 21.1602 98.7675 22.4375V23.1582C98.7675 24.2363 98.9667 25.2031 99.3651 26.0586C99.7635 26.9141 100.344 27.5938 101.105 28.0977C101.867 28.5898 102.775 28.8359 103.83 28.8359C104.849 28.8359 105.752 28.6367 106.537 28.2383C107.334 27.8398 108.019 27.2656 108.594 26.5156L110.879 28.8008C110.281 29.7031 109.379 30.5234 108.172 31.2617C106.976 31.9883 105.441 32.3516 103.566 32.3516ZM117.842 32H113.482V12.9805H117.631L117.842 16.707V32ZM123.572 16.9883C123.303 16.9414 123.016 16.9062 122.711 16.8828C122.418 16.8594 122.125 16.8477 121.832 16.8477C120.871 16.8477 120.068 17.0234 119.424 17.375C118.791 17.7148 118.31 18.207 117.982 18.8516C117.654 19.4844 117.461 20.2344 117.402 21.1016L116.4 21.1191C116.4 19.5137 116.611 18.0723 117.033 16.7949C117.455 15.5176 118.088 14.5039 118.932 13.7539C119.775 13.0039 120.83 12.6289 122.096 12.6289C122.342 12.6289 122.617 12.6523 122.922 12.6992C123.226 12.7461 123.455 12.7988 123.607 12.8574L123.572 16.9883ZM129.603 32H125.226V12.9805H129.34L129.603 16.8652V32ZM127.406 21.8223C127.406 20.0527 127.687 18.4766 128.25 17.0938C128.824 15.7109 129.674 14.6211 130.799 13.8242C131.924 13.0273 133.324 12.6289 135 12.6289C136.723 12.6289 138.141 13.1504 139.254 14.1934C140.367 15.2363 140.924 16.9473 140.924 19.3262V32H136.564V19.7305C136.564 18.8398 136.424 18.1367 136.142 17.6211C135.873 17.1055 135.486 16.7422 134.982 16.5312C134.49 16.3086 133.898 16.1973 133.207 16.1973C132.422 16.1973 131.754 16.3438 131.203 16.6367C130.664 16.918 130.224 17.3164 129.885 17.832C129.545 18.3477 129.293 18.9453 129.129 19.625C128.976 20.3047 128.9 21.0312 128.9 21.8047L127.406 21.8223ZM138.603 21.207C138.615 19.6484 138.902 18.2188 139.465 16.918C140.027 15.6172 140.859 14.5801 141.961 13.8066C143.062 13.0215 144.422 12.6289 146.039 12.6289C147.328 12.6289 148.435 12.8691 149.361 13.3496C150.287 13.8184 151.002 14.5742 151.506 15.6172C152.01 16.6484 152.262 18.0195 152.262 19.7305V32H147.885V19.6953C147.885 18.7695 147.744 18.0547 147.463 17.5508C147.193 17.0352 146.807 16.6836 146.303 16.4961C145.81 16.2969 145.224 16.1973 144.545 16.1973C143.9 16.1973 143.332 16.3145 142.84 16.5488C142.359 16.7832 141.955 17.1113 141.627 17.5332C141.31 17.9434 141.064 18.4297 140.889 18.9922C140.724 19.543 140.642 20.1406 140.642 20.7852L138.603 21.207ZM163.988 32.3516C162.101 32.3516 160.473 31.9473 159.101 31.1387C157.73 30.3184 156.676 29.2168 155.937 27.834C155.199 26.4395 154.83 24.8809 154.83 23.1582V22.4375C154.83 20.457 155.205 18.7344 155.955 17.2695C156.705 15.793 157.73 14.6504 159.031 13.8418C160.344 13.0332 161.826 12.6289 163.478 12.6289C165.307 12.6289 166.824 13.0273 168.031 13.8242C169.238 14.6094 170.141 15.7051 170.738 17.1113C171.336 18.5059 171.635 20.123 171.635 21.9629V23.8438H156.922V20.6973H167.328V20.3633C167.305 19.625 167.164 18.9336 166.906 18.2891C166.648 17.6445 166.238 17.123 165.676 16.7246C165.125 16.3262 164.387 16.127 163.461 16.127C162.535 16.127 161.756 16.3906 161.123 16.918C160.49 17.4336 160.01 18.166 159.682 19.1152C159.353 20.0527 159.189 21.1602 159.189 22.4375V23.1582C159.189 24.2363 159.389 25.2031 159.787 26.0586C160.185 26.9141 160.766 27.5938 161.527 28.0977C162.289 28.5898 163.197 28.8359 164.252 28.8359C165.271 28.8359 166.174 28.6367 166.959 28.2383C167.756 27.8398 168.441 27.2656 169.016 26.5156L171.301 28.8008C170.703 29.7031 169.801 30.5234 168.594 31.2617C167.398 31.9883 165.863 32.3516 163.988 32.3516ZM185.453 5H189.812V32H185.857L185.453 28.0098V5ZM173.113 22.332C173.113 20.4102 173.412 18.7227 174.01 17.2695C174.619 15.8047 175.48 14.668 176.594 13.8594C177.707 13.0391 179.043 12.6289 180.601 12.6289C182.137 12.6289 183.42 13.0273 184.451 13.8242C185.482 14.6211 186.291 15.7285 186.877 17.1465C187.474 18.5527 187.873 20.1875 188.072 22.0508V23.0703C187.873 24.875 187.48 26.4746 186.894 27.8691C186.308 29.2637 185.494 30.3594 184.451 31.1562C183.42 31.9531 182.125 32.3516 180.566 32.3516C179.031 32.3516 177.707 31.9355 176.594 31.1035C175.48 30.2598 174.619 29.1113 174.01 27.6582C173.412 26.2051 173.113 24.5527 173.113 22.7012V22.332ZM177.473 22.7012C177.473 23.8262 177.613 24.8516 177.894 25.7773C178.176 26.6914 178.621 27.4238 179.23 27.9746C179.851 28.5137 180.666 28.7832 181.674 28.7832C182.623 28.7832 183.402 28.5781 184.012 28.168C184.633 27.7461 185.113 27.1777 185.453 26.4629C185.805 25.748 186.045 24.9453 186.174 24.0547V21.084C186.092 20.3809 185.945 19.7305 185.734 19.1328C185.523 18.5352 185.236 18.0195 184.873 17.5859C184.521 17.1523 184.082 16.8125 183.555 16.5664C183.027 16.3203 182.412 16.1973 181.709 16.1973C180.701 16.1973 179.881 16.4727 179.248 17.0234C178.627 17.5625 178.176 18.3008 177.894 19.2383C177.613 20.1641 177.473 21.1953 177.473 22.332V22.7012Z" fill="#1A1A1A"/>
</svg>
